<svg height="400" width="930" version="1.1" xmlns="http://www.w3.org/2000/svg"><defs><clipPath id="highcharts-7"><rect stroke-width="0" height="230" width="850" y="0" x="0" fill="none" ry="0" rx="0"></rect></clipPath></defs><rect stroke="#4572A7" stroke-width="0" height="400" width="930" y="0" x="0" fill="#FFFFFF" ry="5" rx="5"></rect><text  class="highcharts-title" text-anchor="middle" style="font-family:'lucida grande', 'lucida sans unicode', verdana, arial, helvetica, sans-serif;font-size:12px;color:#3e576f;font-size:16px;fill:#3e576f;" y="20" x="465"><tspan x="465">Historical and Projected Average Monthly Temperature for Adak Station</tspan></text><text  class="highcharts-subtitle" text-anchor="middle" style="font-family:'lucida grande', 'lucida sans unicode', verdana, arial, helvetica, sans-serif;font-size:12px;color:#6d869f;fill:#6d869f;" y="40" x="465"><tspan x="465">Mid-range emissions (A1B)</tspan></text><g  class="highcharts-grid"></g><g  class="highcharts-grid"><path stroke-width="1" stroke="#C0C0C0" fill="none" d="M 50 330.5 L 900 330.5"></path><path stroke-width="1" stroke="#C0C0C0" fill="none" d="M 50 273.5 L 900 273.5"></path><path stroke-width="1" stroke="#C0C0C0" fill="none" d="M 50 215.5 L 900 215.5"></path><path stroke-width="1" stroke="#C0C0C0" fill="none" d="M 50 158.5 L 900 158.5"></path><path stroke-width="1" stroke="#C0C0C0" fill="none" d="M 50 100.5 L 900 100.5"></path></g><text  style="font-family:'lucida grande', 'lucida sans unicode', verdana, arial, helvetica, sans-serif;font-size:12px;position:absolute;color:#3e576f;fill:#3e576f;" y="162" x="100"><tspan x="100"> </tspan></text><g  class="highcharts-series-group"><g transform="translate(50, 100)" visibility="visible" clip-path="url(#highcharts-7)" class="highcharts-series"><rect r="0" stroke="#FFFFFF" stroke-width="0" height="92" width="10" y="138" x="7" fill="#00b2ee" ry="0" rx="0"></rect><rect r="0" stroke="#FFFFFF" stroke-width="0" height="92" width="10" y="138" x="78" fill="#00b2ee" ry="0" rx="0"></rect><rect r="0" stroke="#FFFFFF" stroke-width="0" height="98" width="10" y="132" x="149" fill="#00b2ee" ry="0" rx="0"></rect><rect r="0" stroke="#FFFFFF" stroke-width="0" height="106" width="10" y="124" x="220" fill="#00b2ee" ry="0" rx="0"></rect><rect r="0" stroke="#FFFFFF" stroke-width="0" height="116" width="10" y="114" x="290" fill="#00b2ee" ry="0" rx="0"></rect><rect r="0" stroke="#FFFFFF" stroke-width="0" height="128" width="10" y="102" x="361" fill="#00b2ee" ry="0" rx="0"></rect><rect r="0" stroke="#FFFFFF" stroke-width="0" height="141" width="10" y="89" x="432" fill="#00b2ee" ry="0" rx="0"></rect><rect r="0" stroke="#FFFFFF" stroke-width="0" height="146" width="10" y="84" x="503" fill="#00b2ee" ry="0" rx="0"></rect><rect r="0" stroke="#FFFFFF" stroke-width="0" height="136" width="10" y="94" x="574" fill="#00b2ee" ry="0" rx="0"></rect><rect r="0" stroke="#FFFFFF" stroke-width="0" height="121" width="10" y="109" x="645" fill="#00b2ee" ry="0" rx="0"></rect><rect r="0" stroke="#FFFFFF" stroke-width="0" height="106" width="10" y="124" x="715" fill="#00b2ee" ry="0" rx="0"></rect><rect r="0" stroke="#FFFFFF" stroke-width="0" height="97" width="10" y="133" x="786" fill="#00b2ee" ry="0" rx="0"></rect></g><g transform="translate(50, 100)" visibility="visible" clip-path="url(#highcharts-7)" class="highcharts-series"><rect r="0" stroke="#FFFFFF" stroke-width="0" height="99" width="10" y="131" x="18" fill="#308014" ry="0" rx="0"></rect><rect r="0" stroke="#FFFFFF" stroke-width="0" height="99" width="10" y="131" x="89" fill="#308014" ry="0" rx="0"></rect><rect r="0" stroke="#FFFFFF" stroke-width="0" height="103" width="10" y="127" x="160" fill="#308014" ry="0" rx="0"></rect><rect r="0" stroke="#FFFFFF" stroke-width="0" height="110" width="10" y="120" x="231" fill="#308014" ry="0" rx="0"></rect><rect r="0" stroke="#FFFFFF" stroke-width="0" height="120" width="10" y="110" x="302" fill="#308014" ry="0" rx="0"></rect><rect r="0" stroke="#FFFFFF" stroke-width="0" height="132" width="10" y="98" x="373" fill="#308014" ry="0" rx="0"></rect><rect r="0" stroke="#FFFFFF" stroke-width="0" height="144" width="10" y="86" x="443" fill="#308014" ry="0" rx="0"></rect><rect r="0" stroke="#FFFFFF" stroke-width="0" height="150" width="10" y="80" x="514" fill="#308014" ry="0" rx="0"></rect><rect r="0" stroke="#FFFFFF" stroke-width="0" height="140" width="10" y="90" x="585" fill="#308014" ry="0" rx="0"></rect><rect r="0" stroke="#FFFFFF" stroke-width="0" height="124" width="10" y="106" x="656" fill="#308014" ry="0" rx="0"></rect><rect r="0" stroke="#FFFFFF" stroke-width="0" height="110" width="10" y="120" x="727" fill="#308014" ry="0" rx="0"></rect><rect r="0" stroke="#FFFFFF" stroke-width="0" height="103" width="10" y="127" x="798" fill="#308014" ry="0" rx="0"></rect></g><g transform="translate(50, 100)" visibility="hidden" clip-path="url(#highcharts-7)" class="highcharts-series"><rect r="0" stroke="#FFFFFF" stroke-width="0" height="4" width="10" y="226" x="18" fill="#999999" ry="0" rx="0"></rect><rect r="0" stroke="#FFFFFF" stroke-width="0" height="4" width="10" y="226" x="89" fill="#999999" ry="0" rx="0"></rect><rect r="0" stroke="#FFFFFF" stroke-width="0" height="4" width="10" y="226" x="160" fill="#999999" ry="0" rx="0"></rect><rect r="0" stroke="#FFFFFF" stroke-width="0" height="2" width="10" y="228" x="231" fill="#999999" ry="0" rx="0"></rect><rect r="0" stroke="#FFFFFF" stroke-width="0" height="2" width="10" y="228" x="302" fill="#999999" ry="0" rx="0"></rect><rect r="0" stroke="#FFFFFF" stroke-width="0" height="2" width="10" y="228" x="373" fill="#999999" ry="0" rx="0"></rect><rect r="0" stroke="#FFFFFF" stroke-width="0" height="1" width="10" y="229" x="443" fill="#999999" ry="0" rx="0"></rect><rect r="0" stroke="#FFFFFF" stroke-width="0" height="1" width="10" y="229" x="514" fill="#999999" ry="0" rx="0"></rect><rect r="0" stroke="#FFFFFF" stroke-width="0" height="1" width="10" y="229" x="585" fill="#999999" ry="0" rx="0"></rect><rect r="0" stroke="#FFFFFF" stroke-width="0" height="1" width="10" y="229" x="656" fill="#999999" ry="0" rx="0"></rect><rect r="0" stroke="#FFFFFF" stroke-width="0" height="2" width="10" y="228" x="727" fill="#999999" ry="0" rx="0"></rect><rect r="0" stroke="#FFFFFF" stroke-width="0" height="3" width="10" y="227" x="798" fill="#999999" ry="0" rx="0"></rect></g><g transform="translate(50, 100)" visibility="visible" clip-path="url(#highcharts-7)" class="highcharts-series"><rect r="0" stroke="#FFFFFF" stroke-width="0" height="101" width="10" y="129" x="30" fill="#ffff00" ry="0" rx="0"></rect><rect r="0" stroke="#FFFFFF" stroke-width="0" height="101" width="10" y="129" x="101" fill="#ffff00" ry="0" rx="0"></rect><rect r="0" stroke="#FFFFFF" stroke-width="0" height="107" width="10" y="123" x="171" fill="#ffff00" ry="0" rx="0"></rect><rect r="0" stroke="#FFFFFF" stroke-width="0" height="113" width="10" y="117" x="242" fill="#ffff00" ry="0" rx="0"></rect><rect r="0" stroke="#FFFFFF" stroke-width="0" height="123" width="10" y="107" x="313" fill="#ffff00" ry="0" rx="0"></rect><rect r="0" stroke="#FFFFFF" stroke-width="0" height="134" width="10" y="96" x="384" fill="#ffff00" ry="0" rx="0"></rect><rect r="0" stroke="#FFFFFF" stroke-width="0" height="147" width="10" y="83" x="455" fill="#ffff00" ry="0" rx="0"></rect><rect r="0" stroke="#FFFFFF" stroke-width="0" height="153" width="10" y="77" x="526" fill="#ffff00" ry="0" rx="0"></rect><rect r="0" stroke="#FFFFFF" stroke-width="0" height="143" width="10" y="87" x="596" fill="#ffff00" ry="0" rx="0"></rect><rect r="0" stroke="#FFFFFF" stroke-width="0" height="126" width="10" y="104" x="667" fill="#ffff00" ry="0" rx="0"></rect><rect r="0" stroke="#FFFFFF" stroke-width="0" height="112" width="10" y="118" x="738" fill="#ffff00" ry="0" rx="0"></rect><rect r="0" stroke="#FFFFFF" stroke-width="0" height="105" width="10" y="125" x="809" fill="#ffff00" ry="0" rx="0"></rect></g><g transform="translate(50, 100)" visibility="hidden" clip-path="url(#highcharts-7)" class="highcharts-series"><rect r="0" stroke="#FFFFFF" stroke-width="0" height="2" width="10" y="228" x="30" fill="#999999" ry="0" rx="0"></rect><rect r="0" stroke="#FFFFFF" stroke-width="0" height="4" width="10" y="226" x="101" fill="#999999" ry="0" rx="0"></rect><rect r="0" stroke="#FFFFFF" stroke-width="0" height="1" width="10" y="229" x="171" fill="#999999" ry="0" rx="0"></rect><rect r="0" stroke="#FFFFFF" stroke-width="0" height="2" width="10" y="228" x="242" fill="#999999" ry="0" rx="0"></rect><rect r="0" stroke="#FFFFFF" stroke-width="0" height="2" width="10" y="228" x="313" fill="#999999" ry="0" rx="0"></rect><rect r="0" stroke="#FFFFFF" stroke-width="0" height="1" width="10" y="229" x="384" fill="#999999" ry="0" rx="0"></rect><rect r="0" stroke="#FFFFFF" stroke-width="0" height="0" width="10" y="230" x="455" fill="#999999" ry="0" rx="0"></rect><rect r="0" stroke="#FFFFFF" stroke-width="0" height="0" width="10" y="230" x="526" fill="#999999" ry="0" rx="0"></rect><rect r="0" stroke="#FFFFFF" stroke-width="0" height="1" width="10" y="229" x="596" fill="#999999" ry="0" rx="0"></rect><rect r="0" stroke="#FFFFFF" stroke-width="0" height="1" width="10" y="229" x="667" fill="#999999" ry="0" rx="0"></rect><rect r="0" stroke="#FFFFFF" stroke-width="0" height="2" width="10" y="228" x="738" fill="#999999" ry="0" rx="0"></rect><rect r="0" stroke="#FFFFFF" stroke-width="0" height="3" width="10" y="227" x="809" fill="#999999" ry="0" rx="0"></rect></g><g transform="translate(50, 100)" visibility="visible" clip-path="url(#highcharts-7)" class="highcharts-series"><rect r="0" stroke="#FFFFFF" stroke-width="0" height="107" width="10" y="123" x="41" fill="#ff7f00" ry="0" rx="0"></rect><rect r="0" stroke="#FFFFFF" stroke-width="0" height="109" width="10" y="121" x="112" fill="#ff7f00" ry="0" rx="0"></rect><rect r="0" stroke="#FFFFFF" stroke-width="0" height="114" width="10" y="116" x="183" fill="#ff7f00" ry="0" rx="0"></rect><rect r="0" stroke="#FFFFFF" stroke-width="0" height="119" width="10" y="111" x="254" fill="#ff7f00" ry="0" rx="0"></rect><rect r="0" stroke="#FFFFFF" stroke-width="0" height="129" width="10" y="101" x="324" fill="#ff7f00" ry="0" rx="0"></rect><rect r="0" stroke="#FFFFFF" stroke-width="0" height="141" width="10" y="89" x="395" fill="#ff7f00" ry="0" rx="0"></rect><rect r="0" stroke="#FFFFFF" stroke-width="0" height="155" width="10" y="75" x="466" fill="#ff7f00" ry="0" rx="0"></rect><rect r="0" stroke="#FFFFFF" stroke-width="0" height="161" width="10" y="69" x="537" fill="#ff7f00" ry="0" rx="0"></rect><rect r="0" stroke="#FFFFFF" stroke-width="0" height="149" width="10" y="81" x="608" fill="#ff7f00" ry="0" rx="0"></rect><rect r="0" stroke="#FFFFFF" stroke-width="0" height="131" width="10" y="99" x="679" fill="#ff7f00" ry="0" rx="0"></rect><rect r="0" stroke="#FFFFFF" stroke-width="0" height="116" width="10" y="114" x="749" fill="#ff7f00" ry="0" rx="0"></rect><rect r="0" stroke="#FFFFFF" stroke-width="0" height="110" width="10" y="120" x="820" fill="#ff7f00" ry="0" rx="0"></rect></g><g transform="translate(50, 100)" visibility="hidden" clip-path="url(#highcharts-7)" class="highcharts-series"><rect r="0" stroke="#FFFFFF" stroke-width="0" height="5" width="10" y="225" x="41" fill="#999999" ry="0" rx="0"></rect><rect r="0" stroke="#FFFFFF" stroke-width="0" height="4" width="10" y="226" x="112" fill="#999999" ry="0" rx="0"></rect><rect r="0" stroke="#FFFFFF" stroke-width="0" height="4" width="10" y="226" x="183" fill="#999999" ry="0" rx="0"></rect><rect r="0" stroke="#FFFFFF" stroke-width="0" height="4" width="10" y="226" x="254" fill="#999999" ry="0" rx="0"></rect><rect r="0" stroke="#FFFFFF" stroke-width="0" height="2" width="10" y="228" x="324" fill="#999999" ry="0" rx="0"></rect><rect r="0" stroke="#FFFFFF" stroke-width="0" height="2" width="10" y="228" x="395" fill="#999999" ry="0" rx="0"></rect><rect r="0" stroke="#FFFFFF" stroke-width="0" height="4" width="10" y="226" x="466" fill="#999999" ry="0" rx="0"></rect><rect r="0" stroke="#FFFFFF" stroke-width="0" height="3" width="10" y="227" x="537" fill="#999999" ry="0" rx="0"></rect><rect r="0" stroke="#FFFFFF" stroke-width="0" height="2" width="10" y="228" x="608" fill="#999999" ry="0" rx="0"></rect><rect r="0" stroke="#FFFFFF" stroke-width="0" height="2" width="10" y="228" x="679" fill="#999999" ry="0" rx="0"></rect><rect r="0" stroke="#FFFFFF" stroke-width="0" height="2" width="10" y="228" x="749" fill="#999999" ry="0" rx="0"></rect><rect r="0" stroke="#FFFFFF" stroke-width="0" height="2" width="10" y="228" x="820" fill="#999999" ry="0" rx="0"></rect></g><g transform="translate(50, 100)" visibility="visible" clip-path="url(#highcharts-7)" class="highcharts-series"><rect r="0" stroke="#FFFFFF" stroke-width="0" height="110" width="10" y="120" x="52" fill="#cc1100" ry="0" rx="0"></rect><rect r="0" stroke="#FFFFFF" stroke-width="0" height="112" width="10" y="118" x="123" fill="#cc1100" ry="0" rx="0"></rect><rect r="0" stroke="#FFFFFF" stroke-width="0" height="118" width="10" y="112" x="194" fill="#cc1100" ry="0" rx="0"></rect><rect r="0" stroke="#FFFFFF" stroke-width="0" height="123" width="10" y="107" x="265" fill="#cc1100" ry="0" rx="0"></rect><rect r="0" stroke="#FFFFFF" stroke-width="0" height="133" width="10" y="97" x="336" fill="#cc1100" ry="0" rx="0"></rect><rect r="0" stroke="#FFFFFF" stroke-width="0" height="145" width="10" y="85" x="407" fill="#cc1100" ry="0" rx="0"></rect><rect r="0" stroke="#FFFFFF" stroke-width="0" height="159" width="10" y="71" x="477" fill="#cc1100" ry="0" rx="0"></rect><rect r="0" stroke="#FFFFFF" stroke-width="0" height="166" width="10" y="64" x="548" fill="#cc1100" ry="0" rx="0"></rect><rect r="0" stroke="#FFFFFF" stroke-width="0" height="154" width="10" y="76" x="619" fill="#cc1100" ry="0" rx="0"></rect><rect r="0" stroke="#FFFFFF" stroke-width="0" height="135" width="10" y="95" x="690" fill="#cc1100" ry="0" rx="0"></rect><rect r="0" stroke="#FFFFFF" stroke-width="0" height="120" width="10" y="110" x="761" fill="#cc1100" ry="0" rx="0"></rect><rect r="0" stroke="#FFFFFF" stroke-width="0" height="112" width="10" y="118" x="832" fill="#cc1100" ry="0" rx="0"></rect></g><g transform="translate(50, 100)" visibility="hidden" clip-path="url(#highcharts-7)" class="highcharts-series"><rect r="0" stroke="#FFFFFF" stroke-width="0" height="3" width="10" y="227" x="52" fill="#999999" ry="0" rx="0"></rect><rect r="0" stroke="#FFFFFF" stroke-width="0" height="5" width="10" y="225" x="123" fill="#999999" ry="0" rx="0"></rect><rect r="0" stroke="#FFFFFF" stroke-width="0" height="4" width="10" y="226" x="194" fill="#999999" ry="0" rx="0"></rect><rect r="0" stroke="#FFFFFF" stroke-width="0" height="4" width="10" y="226" x="265" fill="#999999" ry="0" rx="0"></rect><rect r="0" stroke="#FFFFFF" stroke-width="0" height="3" width="10" y="227" x="336" fill="#999999" ry="0" rx="0"></rect><rect r="0" stroke="#FFFFFF" stroke-width="0" height="3" width="10" y="227" x="407" fill="#999999" ry="0" rx="0"></rect><rect r="0" stroke="#FFFFFF" stroke-width="0" height="4" width="10" y="226" x="477" fill="#999999" ry="0" rx="0"></rect><rect r="0" stroke="#FFFFFF" stroke-width="0" height="4" width="10" y="226" x="548" fill="#999999" ry="0" rx="0"></rect><rect r="0" stroke="#FFFFFF" stroke-width="0" height="4" width="10" y="226" x="619" fill="#999999" ry="0" rx="0"></rect><rect r="0" stroke="#FFFFFF" stroke-width="0" height="2" width="10" y="228" x="690" fill="#999999" ry="0" rx="0"></rect><rect r="0" stroke="#FFFFFF" stroke-width="0" height="2" width="10" y="228" x="761" fill="#999999" ry="0" rx="0"></rect><rect r="0" stroke="#FFFFFF" stroke-width="0" height="2" width="10" y="228" x="832" fill="#999999" ry="0" rx="0"></rect></g></g><g transform="translate(75, 50)"  class="highcharts-legend"><rect visibility="visible" stroke="#909090" stroke-width="1" height="23" width="780" y="0.5" x="0.5" fill="none" ry="5" rx="5"></rect><text  style="font-family:'lucida grande', 'lucida sans unicode', verdana, arial, helvetica, sans-serif;font-size:12px;cursor:pointer;color:#3e576f;fill:#3e576f;" y="18" x="30"><tspan x="30">1961-1990 historical</tspan></text><text  style="font-family:'lucida grande', 'lucida sans unicode', verdana, arial, helvetica, sans-serif;font-size:12px;cursor:pointer;color:#3e576f;fill:#3e576f;" y="18" x="183"><tspan x="183">2001-2010 modeled</tspan></text><text  style="font-family:'lucida grande', 'lucida sans unicode', verdana, arial, helvetica, sans-serif;font-size:12px;cursor:pointer;color:#3e576f;fill:#3e576f;" y="18" x="335"><tspan x="335">2031-2040 modeled</tspan></text><text  style="font-family:'lucida grande', 'lucida sans unicode', verdana, arial, helvetica, sans-serif;font-size:12px;cursor:pointer;color:#3e576f;fill:#3e576f;" y="18" x="487"><tspan x="487">2061-2070 modeled</tspan></text><text  style="font-family:'lucida grande', 'lucida sans unicode', verdana, arial, helvetica, sans-serif;font-size:12px;cursor:pointer;color:#3e576f;fill:#3e576f;" y="18" x="639"><tspan x="639">2091-2100 modeled</tspan></text><rect stroke="#00b2ee"  stroke-width="0" height="12" width="16" y="7" x="9" fill="#00b2ee" ry="2" rx="2"></rect><rect stroke="#308014"  stroke-width="0" height="12" width="16" y="7" x="162" fill="#308014" ry="2" rx="2"></rect><rect stroke="#ffff00"  stroke-width="0" height="12" width="16" y="7" x="314" fill="#ffff00" ry="2" rx="2"></rect><rect stroke="#ff7f00"  stroke-width="0" height="12" width="16" y="7" x="466" fill="#ff7f00" ry="2" rx="2"></rect><rect stroke="#cc1100"  stroke-width="0" height="12" width="16" y="7" x="618" fill="#cc1100" ry="2" rx="2"></rect></g><g  class="highcharts-axis"><text text-anchor="middle" style="font-family:'lucida grande', 'lucida sans unicode', verdana, arial, helvetica, sans-serif;font-size:12px;width:50.83333333333333px;color:#666;font-size:11px;line-height:14px;fill:#666;" y="344" x="85.41666666666666"><tspan x="85.41666666666666">Jan</tspan></text><text text-anchor="middle" style="font-family:'lucida grande', 'lucida sans unicode', verdana, arial, helvetica, sans-serif;font-size:12px;width:50.83333333333333px;color:#666;font-size:11px;line-height:14px;fill:#666;" y="344" x="156.25"><tspan x="156.25">Feb</tspan></text><text text-anchor="middle" style="font-family:'lucida grande', 'lucida sans unicode', verdana, arial, helvetica, sans-serif;font-size:12px;width:50.83333333333333px;color:#666;font-size:11px;line-height:14px;fill:#666;" y="344" x="227.08333333333334"><tspan x="227.08333333333334">Mar</tspan></text><text text-anchor="middle" style="font-family:'lucida grande', 'lucida sans unicode', verdana, arial, helvetica, sans-serif;font-size:12px;width:50.83333333333333px;color:#666;font-size:11px;line-height:14px;fill:#666;" y="344" x="297.91666666666663"><tspan x="297.91666666666663">Apr</tspan></text><text text-anchor="middle" style="font-family:'lucida grande', 'lucida sans unicode', verdana, arial, helvetica, sans-serif;font-size:12px;width:50.83333333333333px;color:#666;font-size:11px;line-height:14px;fill:#666;" y="344" x="368.74999999999994"><tspan x="368.74999999999994">May</tspan></text><text text-anchor="middle" style="font-family:'lucida grande', 'lucida sans unicode', verdana, arial, helvetica, sans-serif;font-size:12px;width:50.83333333333333px;color:#666;font-size:11px;line-height:14px;fill:#666;" y="344" x="439.5833333333333"><tspan x="439.5833333333333">Jun</tspan></text><text text-anchor="middle" style="font-family:'lucida grande', 'lucida sans unicode', verdana, arial, helvetica, sans-serif;font-size:12px;width:50.83333333333333px;color:#666;font-size:11px;line-height:14px;fill:#666;" y="344" x="510.4166666666666"><tspan x="510.4166666666666">Jul</tspan></text><text text-anchor="middle" style="font-family:'lucida grande', 'lucida sans unicode', verdana, arial, helvetica, sans-serif;font-size:12px;width:50.83333333333333px;color:#666;font-size:11px;line-height:14px;fill:#666;" y="344" x="581.25"><tspan x="581.25">Aug</tspan></text><text text-anchor="middle" style="font-family:'lucida grande', 'lucida sans unicode', verdana, arial, helvetica, sans-serif;font-size:12px;width:50.83333333333333px;color:#666;font-size:11px;line-height:14px;fill:#666;" y="344" x="652.0833333333334"><tspan x="652.0833333333334">Sep</tspan></text><text text-anchor="middle" style="font-family:'lucida grande', 'lucida sans unicode', verdana, arial, helvetica, sans-serif;font-size:12px;width:50.83333333333333px;color:#666;font-size:11px;line-height:14px;fill:#666;" y="344" x="722.9166666666666"><tspan x="722.9166666666666">Oct</tspan></text><text text-anchor="middle" style="font-family:'lucida grande', 'lucida sans unicode', verdana, arial, helvetica, sans-serif;font-size:12px;width:50.83333333333333px;color:#666;font-size:11px;line-height:14px;fill:#666;" y="344" x="793.75"><tspan x="793.75">Nov</tspan></text><text text-anchor="middle" style="font-family:'lucida grande', 'lucida sans unicode', verdana, arial, helvetica, sans-serif;font-size:12px;width:50.83333333333333px;color:#666;font-size:11px;line-height:14px;fill:#666;" y="344" x="864.5833333333334"><tspan x="864.5833333333334">Dec</tspan></text><path stroke-width="1" stroke="#C0D0E0" fill="none" d="M 121.5 330 L 121.5 335"></path><path stroke-width="1" stroke="#C0D0E0" fill="none" d="M 192.5 330 L 192.5 335"></path><path stroke-width="1" stroke="#C0D0E0" fill="none" d="M 263.5 330 L 263.5 335"></path><path stroke-width="1" stroke="#C0D0E0" fill="none" d="M 333.5 330 L 333.5 335"></path><path stroke-width="1" stroke="#C0D0E0" fill="none" d="M 404.5 330 L 404.5 335"></path><path stroke-width="1" stroke="#C0D0E0" fill="none" d="M 475.5 330 L 475.5 335"></path><path stroke-width="1" stroke="#C0D0E0" fill="none" d="M 546.5 330 L 546.5 335"></path><path stroke-width="1" stroke="#C0D0E0" fill="none" d="M 617.5 330 L 617.5 335"></path><path stroke-width="1" stroke="#C0D0E0" fill="none" d="M 688.5 330 L 688.5 335"></path><path stroke-width="1" stroke="#C0D0E0" fill="none" d="M 758.5 330 L 758.5 335"></path><path stroke-width="1" stroke="#C0D0E0" fill="none" d="M 829.5 330 L 829.5 335"></path><path stroke-width="1" stroke="#C0D0E0" fill="none" d="M 900.5 330 L 900.5 335"></path></g><g  class="highcharts-axis"><text text-anchor="end" style="font-family:'lucida grande', 'lucida sans unicode', verdana, arial, helvetica, sans-serif;font-size:12px;width:405px;color:#666;font-size:11px;line-height:14px;fill:#666;" y="336.1" x="42"><tspan x="42">0</tspan></text><text text-anchor="end" style="font-family:'lucida grande', 'lucida sans unicode', verdana, arial, helvetica, sans-serif;font-size:12px;width:405px;color:#666;font-size:11px;line-height:14px;fill:#666;" y="278.6" x="42"><tspan x="42">20</tspan></text><text text-anchor="end" style="font-family:'lucida grande', 'lucida sans unicode', verdana, arial, helvetica, sans-serif;font-size:12px;width:405px;color:#666;font-size:11px;line-height:14px;fill:#666;" y="221.1" x="42"><tspan x="42">40</tspan></text><text text-anchor="end" style="font-family:'lucida grande', 'lucida sans unicode', verdana, arial, helvetica, sans-serif;font-size:12px;width:405px;color:#666;font-size:11px;line-height:14px;fill:#666;" y="163.6" x="42"><tspan x="42">60</tspan></text><text text-anchor="end" style="font-family:'lucida grande', 'lucida sans unicode', verdana, arial, helvetica, sans-serif;font-size:12px;width:405px;color:#666;font-size:11px;line-height:14px;fill:#666;" y="106.1" x="42"><tspan x="42">80</tspan></text></g><text text-anchor="middle" transform="rotate(270, 20, 215)"  style="font-family:'lucida grande', 'lucida sans unicode', verdana, arial, helvetica, sans-serif;font-size:12px;color:#6d869f;font-weight:bold;fill:#6d869f;" y="215" x="20"><tspan x="20">Temperature (°F)</tspan></text><path  stroke-width="1" stroke="#C0D0E0" fill="none" d="M 50 330.5 L 900 330.5"></path><g visibility="hidden"  class="highcharts-tooltip"><rect transform="translate(1, 1)" stroke-opacity="0.05" stroke="rgb(0, 0, 0)"  fill-opacity="0.85" stroke-width="5" height="0" width="0" y="2" x="2" fill="none" ry="5" rx="5"></rect><rect transform="translate(1, 1)" stroke-opacity="0.1" stroke="rgb(0, 0, 0)"  fill-opacity="0.85" stroke-width="3" height="0" width="0" y="2" x="2" fill="none" ry="5" rx="5"></rect><rect transform="translate(1, 1)" stroke-opacity="0.15000000000000002" stroke="rgb(0, 0, 0)"  fill-opacity="0.85" stroke-width="1" height="0" width="0" y="2" x="2" fill="none" ry="5" rx="5"></rect><rect fill-opacity="0.85" stroke-width="2" height="0" width="0" y="2" x="2" fill="rgb(255,255,255)" ry="5" rx="5"></rect><text  style="font-family:'lucida grande', 'lucida sans unicode', verdana, arial, helvetica, sans-serif;font-size:12px;color:#333333;font-size:12px;padding:0;white-space:nowrap;fill:#333333;" y="14" x="2"><tspan x="2"> </tspan></text></g><text  text-anchor="start" style="font-family:'lucida grande', 'lucida sans unicode', verdana, arial, helvetica, sans-serif;font-size:12px;cursor:pointer;color:#909090;font-size:10px;width:890px;height:50px;fill:#909090;" y="365" x="10"><tspan x="10">This graph shows average values from projections from five global models used by the Intergovernmental Panel on Climate Change.  Due to variability among models and among years in a</tspan><tspan dy="16" x="10">natural climate system, such graphs are useful for examining trends over time, rather than for precisely predicting monthly or yearly values.  For more information on the SNAP program, including</tspan><tspan dy="16" x="10">derivation, reliability, and variability among these projections, please visit www.snap.uaf.edu.</tspan></text><g transform="translate(50, 100)"  class="highcharts-tracker"><rect style=""  visibility="visible" fill-opacity="0.000001"  stroke-width="0" height="92" width="10" y="138" x="7" fill="rgb(192,192,192)" ry="0" rx="0"></rect><rect style=""  visibility="visible" fill-opacity="0.000001"  stroke-width="0" height="92" width="10" y="138" x="78" fill="rgb(192,192,192)" ry="0" rx="0"></rect><rect style=""  visibility="visible" fill-opacity="0.000001"  stroke-width="0" height="98" width="10" y="132" x="149" fill="rgb(192,192,192)" ry="0" rx="0"></rect><rect style=""  visibility="visible" fill-opacity="0.000001"  stroke-width="0" height="106" width="10" y="124" x="220" fill="rgb(192,192,192)" ry="0" rx="0"></rect><rect style=""  visibility="visible" fill-opacity="0.000001"  stroke-width="0" height="116" width="10" y="114" x="290" fill="rgb(192,192,192)" ry="0" rx="0"></rect><rect style=""  visibility="visible" fill-opacity="0.000001"  stroke-width="0" height="128" width="10" y="102" x="361" fill="rgb(192,192,192)" ry="0" rx="0"></rect><rect style=""  visibility="visible" fill-opacity="0.000001"  stroke-width="0" height="141" width="10" y="89" x="432" fill="rgb(192,192,192)" ry="0" rx="0"></rect><rect style=""  visibility="visible" fill-opacity="0.000001"  stroke-width="0" height="146" width="10" y="84" x="503" fill="rgb(192,192,192)" ry="0" rx="0"></rect><rect style=""  visibility="visible" fill-opacity="0.000001"  stroke-width="0" height="136" width="10" y="94" x="574" fill="rgb(192,192,192)" ry="0" rx="0"></rect><rect style=""  visibility="visible" fill-opacity="0.000001"  stroke-width="0" height="121" width="10" y="109" x="645" fill="rgb(192,192,192)" ry="0" rx="0"></rect><rect style=""  visibility="visible" fill-opacity="0.000001"  stroke-width="0" height="106" width="10" y="124" x="715" fill="rgb(192,192,192)" ry="0" rx="0"></rect><rect style=""  visibility="visible" fill-opacity="0.000001"  stroke-width="0" height="97" width="10" y="133" x="786" fill="rgb(192,192,192)" ry="0" rx="0"></rect><rect style=""  visibility="visible" fill-opacity="0.000001"  stroke-width="0" height="99" width="10" y="131" x="18" fill="rgb(192,192,192)" ry="0" rx="0"></rect><rect style=""  visibility="visible" fill-opacity="0.000001"  stroke-width="0" height="99" width="10" y="131" x="89" fill="rgb(192,192,192)" ry="0" rx="0"></rect><rect style=""  visibility="visible" fill-opacity="0.000001"  stroke-width="0" height="103" width="10" y="127" x="160" fill="rgb(192,192,192)" ry="0" rx="0"></rect><rect style=""  visibility="visible" fill-opacity="0.000001"  stroke-width="0" height="110" width="10" y="120" x="231" fill="rgb(192,192,192)" ry="0" rx="0"></rect><rect style=""  visibility="visible" fill-opacity="0.000001"  stroke-width="0" height="120" width="10" y="110" x="302" fill="rgb(192,192,192)" ry="0" rx="0"></rect><rect style=""  visibility="visible" fill-opacity="0.000001"  stroke-width="0" height="132" width="10" y="98" x="373" fill="rgb(192,192,192)" ry="0" rx="0"></rect><rect style=""  visibility="visible" fill-opacity="0.000001"  stroke-width="0" height="144" width="10" y="86" x="443" fill="rgb(192,192,192)" ry="0" rx="0"></rect><rect style=""  visibility="visible" fill-opacity="0.000001"  stroke-width="0" height="150" width="10" y="80" x="514" fill="rgb(192,192,192)" ry="0" rx="0"></rect><rect style=""  visibility="visible" fill-opacity="0.000001"  stroke-width="0" height="140" width="10" y="90" x="585" fill="rgb(192,192,192)" ry="0" rx="0"></rect><rect style=""  visibility="visible" fill-opacity="0.000001"  stroke-width="0" height="124" width="10" y="106" x="656" fill="rgb(192,192,192)" ry="0" rx="0"></rect><rect style=""  visibility="visible" fill-opacity="0.000001"  stroke-width="0" height="110" width="10" y="120" x="727" fill="rgb(192,192,192)" ry="0" rx="0"></rect><rect style=""  visibility="visible" fill-opacity="0.000001"  stroke-width="0" height="103" width="10" y="127" x="798" fill="rgb(192,192,192)" ry="0" rx="0"></rect><rect style=""  visibility="hidden" fill-opacity="0.000001"  stroke-width="0" height="4" width="10" y="226" x="18" fill="rgb(192,192,192)" ry="0" rx="0"></rect><rect style=""  visibility="hidden" fill-opacity="0.000001"  stroke-width="0" height="4" width="10" y="226" x="89" fill="rgb(192,192,192)" ry="0" rx="0"></rect><rect style=""  visibility="hidden" fill-opacity="0.000001"  stroke-width="0" height="4" width="10" y="226" x="160" fill="rgb(192,192,192)" ry="0" rx="0"></rect><rect style=""  visibility="hidden" fill-opacity="0.000001"  stroke-width="0" height="2" width="10" y="228" x="231" fill="rgb(192,192,192)" ry="0" rx="0"></rect><rect style=""  visibility="hidden" fill-opacity="0.000001"  stroke-width="0" height="2" width="10" y="228" x="302" fill="rgb(192,192,192)" ry="0" rx="0"></rect><rect style=""  visibility="hidden" fill-opacity="0.000001"  stroke-width="0" height="2" width="10" y="228" x="373" fill="rgb(192,192,192)" ry="0" rx="0"></rect><rect style=""  visibility="hidden" fill-opacity="0.000001"  stroke-width="0" height="1" width="10" y="229" x="443" fill="rgb(192,192,192)" ry="0" rx="0"></rect><rect style=""  visibility="hidden" fill-opacity="0.000001"  stroke-width="0" height="1" width="10" y="229" x="514" fill="rgb(192,192,192)" ry="0" rx="0"></rect><rect style=""  visibility="hidden" fill-opacity="0.000001"  stroke-width="0" height="1" width="10" y="229" x="585" fill="rgb(192,192,192)" ry="0" rx="0"></rect><rect style=""  visibility="hidden" fill-opacity="0.000001"  stroke-width="0" height="1" width="10" y="229" x="656" fill="rgb(192,192,192)" ry="0" rx="0"></rect><rect style=""  visibility="hidden" fill-opacity="0.000001"  stroke-width="0" height="2" width="10" y="228" x="727" fill="rgb(192,192,192)" ry="0" rx="0"></rect><rect style=""  visibility="hidden" fill-opacity="0.000001"  stroke-width="0" height="3" width="10" y="227" x="798" fill="rgb(192,192,192)" ry="0" rx="0"></rect><rect style=""  visibility="visible" fill-opacity="0.000001"  stroke-width="0" height="101" width="10" y="129" x="30" fill="rgb(192,192,192)" ry="0" rx="0"></rect><rect style=""  visibility="visible" fill-opacity="0.000001"  stroke-width="0" height="101" width="10" y="129" x="101" fill="rgb(192,192,192)" ry="0" rx="0"></rect><rect style=""  visibility="visible" fill-opacity="0.000001"  stroke-width="0" height="107" width="10" y="123" x="171" fill="rgb(192,192,192)" ry="0" rx="0"></rect><rect style=""  visibility="visible" fill-opacity="0.000001"  stroke-width="0" height="113" width="10" y="117" x="242" fill="rgb(192,192,192)" ry="0" rx="0"></rect><rect style=""  visibility="visible" fill-opacity="0.000001"  stroke-width="0" height="123" width="10" y="107" x="313" fill="rgb(192,192,192)" ry="0" rx="0"></rect><rect style=""  visibility="visible" fill-opacity="0.000001"  stroke-width="0" height="134" width="10" y="96" x="384" fill="rgb(192,192,192)" ry="0" rx="0"></rect><rect style=""  visibility="visible" fill-opacity="0.000001"  stroke-width="0" height="147" width="10" y="83" x="455" fill="rgb(192,192,192)" ry="0" rx="0"></rect><rect style=""  visibility="visible" fill-opacity="0.000001"  stroke-width="0" height="153" width="10" y="77" x="526" fill="rgb(192,192,192)" ry="0" rx="0"></rect><rect style=""  visibility="visible" fill-opacity="0.000001"  stroke-width="0" height="143" width="10" y="87" x="596" fill="rgb(192,192,192)" ry="0" rx="0"></rect><rect style=""  visibility="visible" fill-opacity="0.000001"  stroke-width="0" height="126" width="10" y="104" x="667" fill="rgb(192,192,192)" ry="0" rx="0"></rect><rect style=""  visibility="visible" fill-opacity="0.000001"  stroke-width="0" height="112" width="10" y="118" x="738" fill="rgb(192,192,192)" ry="0" rx="0"></rect><rect style=""  visibility="visible" fill-opacity="0.000001"  stroke-width="0" height="105" width="10" y="125" x="809" fill="rgb(192,192,192)" ry="0" rx="0"></rect><rect style=""  visibility="hidden" fill-opacity="0.000001"  stroke-width="0" height="2" width="10" y="228" x="30" fill="rgb(192,192,192)" ry="0" rx="0"></rect><rect style=""  visibility="hidden" fill-opacity="0.000001"  stroke-width="0" height="4" width="10" y="226" x="101" fill="rgb(192,192,192)" ry="0" rx="0"></rect><rect style=""  visibility="hidden" fill-opacity="0.000001"  stroke-width="0" height="1" width="10" y="229" x="171" fill="rgb(192,192,192)" ry="0" rx="0"></rect><rect style=""  visibility="hidden" fill-opacity="0.000001"  stroke-width="0" height="2" width="10" y="228" x="242" fill="rgb(192,192,192)" ry="0" rx="0"></rect><rect style=""  visibility="hidden" fill-opacity="0.000001"  stroke-width="0" height="2" width="10" y="228" x="313" fill="rgb(192,192,192)" ry="0" rx="0"></rect><rect style=""  visibility="hidden" fill-opacity="0.000001"  stroke-width="0" height="1" width="10" y="229" x="384" fill="rgb(192,192,192)" ry="0" rx="0"></rect><rect style=""  visibility="hidden" fill-opacity="0.000001"  stroke-width="0" height="0" width="10" y="230" x="455" fill="rgb(192,192,192)" ry="0" rx="0"></rect><rect style=""  visibility="hidden" fill-opacity="0.000001"  stroke-width="0" height="0" width="10" y="230" x="526" fill="rgb(192,192,192)" ry="0" rx="0"></rect><rect style=""  visibility="hidden" fill-opacity="0.000001"  stroke-width="0" height="1" width="10" y="229" x="596" fill="rgb(192,192,192)" ry="0" rx="0"></rect><rect style=""  visibility="hidden" fill-opacity="0.000001"  stroke-width="0" height="1" width="10" y="229" x="667" fill="rgb(192,192,192)" ry="0" rx="0"></rect><rect style=""  visibility="hidden" fill-opacity="0.000001"  stroke-width="0" height="2" width="10" y="228" x="738" fill="rgb(192,192,192)" ry="0" rx="0"></rect><rect style=""  visibility="hidden" fill-opacity="0.000001"  stroke-width="0" height="3" width="10" y="227" x="809" fill="rgb(192,192,192)" ry="0" rx="0"></rect><rect style=""  visibility="visible" fill-opacity="0.000001"  stroke-width="0" height="107" width="10" y="123" x="41" fill="rgb(192,192,192)" ry="0" rx="0"></rect><rect style=""  visibility="visible" fill-opacity="0.000001"  stroke-width="0" height="109" width="10" y="121" x="112" fill="rgb(192,192,192)" ry="0" rx="0"></rect><rect style=""  visibility="visible" fill-opacity="0.000001"  stroke-width="0" height="114" width="10" y="116" x="183" fill="rgb(192,192,192)" ry="0" rx="0"></rect><rect style=""  visibility="visible" fill-opacity="0.000001"  stroke-width="0" height="119" width="10" y="111" x="254" fill="rgb(192,192,192)" ry="0" rx="0"></rect><rect style=""  visibility="visible" fill-opacity="0.000001"  stroke-width="0" height="129" width="10" y="101" x="324" fill="rgb(192,192,192)" ry="0" rx="0"></rect><rect style=""  visibility="visible" fill-opacity="0.000001"  stroke-width="0" height="141" width="10" y="89" x="395" fill="rgb(192,192,192)" ry="0" rx="0"></rect><rect style=""  visibility="visible" fill-opacity="0.000001"  stroke-width="0" height="155" width="10" y="75" x="466" fill="rgb(192,192,192)" ry="0" rx="0"></rect><rect style=""  visibility="visible" fill-opacity="0.000001"  stroke-width="0" height="161" width="10" y="69" x="537" fill="rgb(192,192,192)" ry="0" rx="0"></rect><rect style=""  visibility="visible" fill-opacity="0.000001"  stroke-width="0" height="149" width="10" y="81" x="608" fill="rgb(192,192,192)" ry="0" rx="0"></rect><rect style=""  visibility="visible" fill-opacity="0.000001"  stroke-width="0" height="131" width="10" y="99" x="679" fill="rgb(192,192,192)" ry="0" rx="0"></rect><rect style=""  visibility="visible" fill-opacity="0.000001"  stroke-width="0" height="116" width="10" y="114" x="749" fill="rgb(192,192,192)" ry="0" rx="0"></rect><rect style=""  visibility="visible" fill-opacity="0.000001"  stroke-width="0" height="110" width="10" y="120" x="820" fill="rgb(192,192,192)" ry="0" rx="0"></rect><rect style=""  visibility="hidden" fill-opacity="0.000001"  stroke-width="0" height="5" width="10" y="225" x="41" fill="rgb(192,192,192)" ry="0" rx="0"></rect><rect style=""  visibility="hidden" fill-opacity="0.000001"  stroke-width="0" height="4" width="10" y="226" x="112" fill="rgb(192,192,192)" ry="0" rx="0"></rect><rect style=""  visibility="hidden" fill-opacity="0.000001"  stroke-width="0" height="4" width="10" y="226" x="183" fill="rgb(192,192,192)" ry="0" rx="0"></rect><rect style=""  visibility="hidden" fill-opacity="0.000001"  stroke-width="0" height="4" width="10" y="226" x="254" fill="rgb(192,192,192)" ry="0" rx="0"></rect><rect style=""  visibility="hidden" fill-opacity="0.000001"  stroke-width="0" height="2" width="10" y="228" x="324" fill="rgb(192,192,192)" ry="0" rx="0"></rect><rect style=""  visibility="hidden" fill-opacity="0.000001"  stroke-width="0" height="2" width="10" y="228" x="395" fill="rgb(192,192,192)" ry="0" rx="0"></rect><rect style=""  visibility="hidden" fill-opacity="0.000001"  stroke-width="0" height="4" width="10" y="226" x="466" fill="rgb(192,192,192)" ry="0" rx="0"></rect><rect style=""  visibility="hidden" fill-opacity="0.000001"  stroke-width="0" height="3" width="10" y="227" x="537" fill="rgb(192,192,192)" ry="0" rx="0"></rect><rect style=""  visibility="hidden" fill-opacity="0.000001"  stroke-width="0" height="2" width="10" y="228" x="608" fill="rgb(192,192,192)" ry="0" rx="0"></rect><rect style=""  visibility="hidden" fill-opacity="0.000001"  stroke-width="0" height="2" width="10" y="228" x="679" fill="rgb(192,192,192)" ry="0" rx="0"></rect><rect style=""  visibility="hidden" fill-opacity="0.000001"  stroke-width="0" height="2" width="10" y="228" x="749" fill="rgb(192,192,192)" ry="0" rx="0"></rect><rect style=""  visibility="hidden" fill-opacity="0.000001"  stroke-width="0" height="2" width="10" y="228" x="820" fill="rgb(192,192,192)" ry="0" rx="0"></rect><rect style=""  visibility="visible" fill-opacity="0.000001"  stroke-width="0" height="110" width="10" y="120" x="52" fill="rgb(192,192,192)" ry="0" rx="0"></rect><rect style=""  visibility="visible" fill-opacity="0.000001"  stroke-width="0" height="112" width="10" y="118" x="123" fill="rgb(192,192,192)" ry="0" rx="0"></rect><rect style=""  visibility="visible" fill-opacity="0.000001"  stroke-width="0" height="118" width="10" y="112" x="194" fill="rgb(192,192,192)" ry="0" rx="0"></rect><rect style=""  visibility="visible" fill-opacity="0.000001"  stroke-width="0" height="123" width="10" y="107" x="265" fill="rgb(192,192,192)" ry="0" rx="0"></rect><rect style=""  visibility="visible" fill-opacity="0.000001"  stroke-width="0" height="133" width="10" y="97" x="336" fill="rgb(192,192,192)" ry="0" rx="0"></rect><rect style=""  visibility="visible" fill-opacity="0.000001"  stroke-width="0" height="145" width="10" y="85" x="407" fill="rgb(192,192,192)" ry="0" rx="0"></rect><rect style=""  visibility="visible" fill-opacity="0.000001"  stroke-width="0" height="159" width="10" y="71" x="477" fill="rgb(192,192,192)" ry="0" rx="0"></rect><rect style=""  visibility="visible" fill-opacity="0.000001"  stroke-width="0" height="166" width="10" y="64" x="548" fill="rgb(192,192,192)" ry="0" rx="0"></rect><rect style=""  visibility="visible" fill-opacity="0.000001"  stroke-width="0" height="154" width="10" y="76" x="619" fill="rgb(192,192,192)" ry="0" rx="0"></rect><rect style=""  visibility="visible" fill-opacity="0.000001"  stroke-width="0" height="135" width="10" y="95" x="690" fill="rgb(192,192,192)" ry="0" rx="0"></rect><rect style=""  visibility="visible" fill-opacity="0.000001"  stroke-width="0" height="120" width="10" y="110" x="761" fill="rgb(192,192,192)" ry="0" rx="0"></rect><rect style=""  visibility="visible" fill-opacity="0.000001"  stroke-width="0" height="112" width="10" y="118" x="832" fill="rgb(192,192,192)" ry="0" rx="0"></rect><rect style=""  visibility="hidden" fill-opacity="0.000001"  stroke-width="0" height="3" width="10" y="227" x="52" fill="rgb(192,192,192)" ry="0" rx="0"></rect><rect style=""  visibility="hidden" fill-opacity="0.000001"  stroke-width="0" height="5" width="10" y="225" x="123" fill="rgb(192,192,192)" ry="0" rx="0"></rect><rect style=""  visibility="hidden" fill-opacity="0.000001"  stroke-width="0" height="4" width="10" y="226" x="194" fill="rgb(192,192,192)" ry="0" rx="0"></rect><rect style=""  visibility="hidden" fill-opacity="0.000001"  stroke-width="0" height="4" width="10" y="226" x="265" fill="rgb(192,192,192)" ry="0" rx="0"></rect><rect style=""  visibility="hidden" fill-opacity="0.000001"  stroke-width="0" height="3" width="10" y="227" x="336" fill="rgb(192,192,192)" ry="0" rx="0"></rect><rect style=""  visibility="hidden" fill-opacity="0.000001"  stroke-width="0" height="3" width="10" y="227" x="407" fill="rgb(192,192,192)" ry="0" rx="0"></rect><rect style=""  visibility="hidden" fill-opacity="0.000001"  stroke-width="0" height="4" width="10" y="226" x="477" fill="rgb(192,192,192)" ry="0" rx="0"></rect><rect style=""  visibility="hidden" fill-opacity="0.000001"  stroke-width="0" height="4" width="10" y="226" x="548" fill="rgb(192,192,192)" ry="0" rx="0"></rect><rect style=""  visibility="hidden" fill-opacity="0.000001"  stroke-width="0" height="4" width="10" y="226" x="619" fill="rgb(192,192,192)" ry="0" rx="0"></rect><rect style=""  visibility="hidden" fill-opacity="0.000001"  stroke-width="0" height="2" width="10" y="228" x="690" fill="rgb(192,192,192)" ry="0" rx="0"></rect><rect style=""  visibility="hidden" fill-opacity="0.000001"  stroke-width="0" height="2" width="10" y="228" x="761" fill="rgb(192,192,192)" ry="0" rx="0"></rect><rect style=""  visibility="hidden" fill-opacity="0.000001"  stroke-width="0" height="2" width="10" y="228" x="832" fill="rgb(192,192,192)" ry="0" rx="0"></rect></g></svg>